<?xml version="1.0" encoding="iso-8859-1"?>
<!-- Uploaded to: SVG Repo, www.svgrepo.com, Generator: SVG Repo Mixer Tools -->
<svg fill="#000000" version="1.1" id="Layer_1" xmlns="http://www.w3.org/2000/svg" xmlns:xlink="http://www.w3.org/1999/xlink" 
	 viewBox="0 0 511.992 511.992" xml:space="preserve">
<g>
	<g>
		<path d="M323.912,428.449h150.567c-3.038-27.523-26.426-49.006-54.746-49.006h-11.756l-66.24-114.733l49.348-28.492
			c20.217-11.672,34.679-30.52,40.721-53.068c6.042-22.549,2.941-46.102-8.732-66.319L385.67,52.046
			c-24.094-41.734-77.652-56.082-119.387-31.991c-41.735,24.096-56.085,77.653-31.99,119.387l65.894,114.133l-66.451,38.366h-48.761
			V269.94h-30.417v22.002h-38.211C52.194,291.943,0,344.135,0,408.29v65.211h134.202c-5.201-10.598-8.133-22.505-8.133-35.085
			c0-44.069,35.853-79.921,79.921-79.921c14.496,0,28.09,3.898,39.824,10.673v-49.076l69.582-40.173l57.624,99.81
			C347.286,382.357,326.746,402.775,323.912,428.449z M260.637,124.235c-7.609-13.181-9.632-28.536-5.692-43.238
			c3.94-14.702,13.368-26.989,26.548-34.6c8.952-5.168,18.733-7.623,28.394-7.623c19.707,0,38.902,10.221,49.443,28.48
			l37.405,64.787c7.609,13.181,9.632,28.536,5.692,43.238c-3.939,14.701-13.367,26.988-26.549,34.599l-49.347,28.491
			L260.637,124.235z"/>
	</g>
</g>
<g>
	<g>
		<rect x="286.388" y="458.863" width="225.604" height="44.764"/>
	</g>
</g>
<g>
	<g>
		<path d="M205.99,388.913c-27.297,0-49.504,22.208-49.504,49.504s22.208,49.504,49.504,49.504
			c27.296,0,49.505-22.209,49.505-49.504C255.495,411.12,233.288,388.913,205.99,388.913z"/>
	</g>
</g>
</svg>